Coordinates
version=1
nRows=14
nColumns=46
inDegrees=yes

Units are S.I. units (second, meters, Newtons, ...)
Angles are in degrees.

endheader
time	pelvis_tilt	pelvis_list	pelvis_rotation	pelvis_tx	pelvis_ty	pelvis_tz	bb_angle	bb_tx	bb_ty	bb_tz	hip_flexion_r	hip_adduction_r	hip_rotation_r	knee_angle_r	knee_angle_r_beta	ankle_angle_r	subtalar_angle_r	mtp_angle_r	crank_angle_r	hip_flexion_l	hip_adduction_l	hip_rotation_l	knee_angle_l	knee_angle_l_beta	ankle_angle_l	subtalar_angle_l	mtp_angle_l	crank_angle_l	lumbar_extension	lumbar_bending	lumbar_rotation	arm_flex_r	arm_add_r	arm_rot_r	elbow_flex_r	pro_sup_r	wrist_flex_r	wrist_dev_r	arm_flex_l	arm_add_l	arm_rot_l	elbow_flex_l	pro_sup_l	wrist_flex_l	wrist_dev_l
      7.50500000	    -19.80279657	      5.65847050	      7.25869015	      0.34130654	      1.11446550	     -0.26103577	      0.00000000	      0.50000000	      0.00000000	      0.25000000	     30.33278114	    -13.38850842	    -10.52603779	     34.82778624	      0.60785954	    -20.51444175	    -13.12337079	      0.00000000	      0.00000000	     82.55799610	     -0.68339177	     -1.76384853	    115.72150811	      2.01972133	      0.41213585	     -4.64548711	      0.00000000	      0.00000000	    -52.97402586	     -1.57560859	     -9.18907314	     69.36229839	    -11.47865080	     48.53001694	     30.94412444	     48.10002201	      0.00000000	      0.00000000	     74.32256502	    -15.22908464	     62.24880261	     38.74051664	     49.30506420	      0.00000000	      0.00000000
      7.51000000	    -19.63589029	      5.83493109	      7.37451083	      0.34148054	      1.11515903	     -0.26070394	      0.00000000	      0.50000000	      0.00000000	      0.25000000	     29.99392926	    -13.59385700	    -10.43093659	     35.72597924	      0.62353597	    -20.70296644	    -13.46444923	      0.00000000	      0.00000000	     82.85883701	     -0.45665032	     -1.93522385	    115.20933477	      2.01078222	      0.82186924	     -4.54953382	      0.00000000	      0.00000000	    -53.23758020	     -1.71354696	     -9.29856680	     69.39376817	    -11.53514192	     48.52455027	     30.95007363	     48.09921755	      0.00000000	      0.00000000	     74.40210949	    -15.12677306	     62.17256262	     38.83568217	     49.30101385	      0.00000000	      0.00000000
      7.51500000	    -19.39510236	      6.05033439	      7.48564439	      0.34159804	      1.11620916	     -0.26033206	      0.00000000	      0.50000000	      0.00000000	      0.25000000	     29.66844343	    -13.79757965	    -10.16375972	     36.76699528	      0.64170512	    -20.92435932	    -13.96282320	      0.00000000	      0.00000000	     82.94182712	     -0.19738787	     -2.12330612	    114.53025007	      1.99892996	      1.16726285	     -4.24890724	      0.00000000	      0.00000000	    -53.59770542	     -1.84194889	     -9.46223552	     69.46876548	    -11.58492037	     48.56475644	     30.89600400	     48.10275714	      0.00000000	      0.00000000	     74.51153777	    -15.04163073	     62.16728366	     38.84724781	     49.29894900	      0.00000000	      0.00000000
      7.52000000	    -19.25014133	      5.97867383	      7.58968797	      0.34189502	      1.11749038	     -0.26001991	      0.00000000	      0.50000000	      0.00000000	      0.25000000	     29.33448293	    -13.62570013	     -9.77722279	     37.54186510	      0.65522915	    -21.08533938	    -14.11053659	      0.00000000	      0.00000000	     83.02742970	      0.01935295	     -2.04127021	    113.65983597	      1.98373836	      1.40411485	     -4.20106585	      0.00000000	      0.00000000	    -53.81099453	     -1.73880378	     -9.44065870	     69.40510686	    -11.57512154	     48.59443952	     30.86573109	     48.10506431	      0.00000000	      0.00000000	     74.51660263	    -15.02734005	     62.16896595	     38.83518093	     49.29679812	      0.00000000	      0.00000000
      7.52500000	    -18.85532934	      6.30675866	      7.69431631	      0.34182334	      1.11864726	     -0.25978362	      0.00000000	      0.50000000	      0.00000000	      0.25000000	     29.21087192	    -13.98908536	     -9.44125991	     39.26413781	      0.68528848	    -21.27422891	    -15.12549579	      0.00000000	      0.00000000	     82.70534514	      0.37796207	     -2.33953526	    112.76131850	      1.96805628	      1.96549024	     -3.88160099	      0.00000000	      0.00000000	    -54.38608167	     -1.91735404	     -9.65940828	     69.68294147	    -11.61937531	     48.63718476	     30.77786703	     48.10002927	      0.00000000	      0.00000000	     74.83540563	    -14.87661319	     62.13295944	     38.79422103	     49.27845473	      0.00000000	      0.00000000
      7.53000000	    -18.57606570	      6.53818818	      7.77601178	      0.34184288	      1.12016696	     -0.25943955	      0.00000000	      0.50000000	      0.00000000	      0.25000000	     29.09554603	    -14.13004176	     -8.79280384	     40.66770352	      0.70978533	    -21.50227453	    -15.81891106	      0.00000000	      0.00000000	     82.32159049	      0.71851174	     -2.57423389	    111.59652729	      1.94772684	      2.42966124	     -3.65351643	      0.00000000	      0.00000000	    -54.83635845	     -2.05953825	     -9.85424143	     69.80880926	    -11.61859789	     48.75869301	     30.62247067	     48.10089402	      0.00000000	      0.00000000	     75.25814262	    -14.84794698	     62.01496186	     38.59174539	     49.22328213	      0.00000000	      0.00000000
      7.53500000	    -18.29352494	      6.48392886	      7.82798200	      0.34179578	      1.12145706	     -0.25929461	      0.00000000	      0.50000000	      0.00000000	      0.25000000	     29.07158088	    -13.99130579	     -8.20806481	     42.18489912	      0.73626538	    -21.72085846	    -16.23451390	      0.00000000	      0.00000000	     81.96226430	      1.03383702	     -2.49938511	    110.42639830	      1.92730423	      2.66748045	     -3.64174813	      0.00000000	      0.00000000	    -55.16510852	     -1.94447086	     -9.81370181	     69.92005641	    -11.58584298	     48.82435105	     30.53068960	     48.09880109	      0.00000000	      0.00000000	     75.34714652	    -14.78928212	     62.00086842	     38.47671450	     49.20060706	      0.00000000	      0.00000000
      7.54000000	    -18.09594338	      6.71189850	      7.76360314	      0.34167342	      1.12284301	     -0.25873477	      0.00000000	      0.50000000	      0.00000000	      0.25000000	     29.31344766	    -14.04466100	     -7.33942341	     43.89702016	      0.76614753	    -21.99879075	    -17.02404012	      0.00000000	      0.00000000	     81.43931619	      1.26116540	     -2.80323307	    109.00199107	      1.90244364	      2.96398134	     -3.90535409	      0.00000000	      0.00000000	    -55.45429022	     -2.21534964	     -9.95320628	     70.29913148	    -11.32017724	     49.67885512	     29.46774961	     48.10485944	      0.00000000	      0.00000000	     75.72504061	    -14.38796917	     62.21459038	     37.39240102	     49.04464930	      0.00000000	      0.00000000
      7.54500000	    -17.83380403	      6.57668641	      7.78233168	      0.34152705	      1.12398075	     -0.25850927	      0.00000000	      0.50000000	      0.00000000	      0.25000000	     29.49582144	    -13.79403274	     -6.73907220	     45.63895197	      0.79654998	    -22.17127052	    -17.45401727	      0.00000000	      0.00000000	     80.89081564	      1.49910882	     -2.68901083	    107.58642780	      1.87773740	      3.19811883	     -3.99206637	      0.00000000	      0.00000000	    -55.73583753	     -2.06129443	     -9.73247932	     70.46425068	    -11.37960124	     49.69362056	     29.39244322	     48.09688319	      0.00000000	      0.00000000	     75.90924903	    -14.44854344	     62.10907628	     37.32007006	     49.01721891	      0.00000000	      0.00000000
      7.55000000	    -17.66148544	      6.54118309	      7.78751662	      0.34135706	      1.12505112	     -0.25828548	      0.00000000	      0.50000000	      0.00000000	      0.25000000	     29.87559214	    -13.65131928	     -6.10783355	     47.50373304	      0.82909655	    -22.37409932	    -18.05078386	      0.00000000	      0.00000000	     80.30078814	      1.77236317	     -2.69222767	    106.03093107	      1.85058886	      3.31588620	     -4.11941374	      0.00000000	      0.00000000	    -55.97624752	     -2.01430257	     -9.65726950	     70.63282149	    -11.35345146	     49.74229157	     29.28259328	     48.08859092	      0.00000000	      0.00000000	     76.02066300	    -14.33658117	     62.04802396	     37.24183728	     48.99354192	      0.00000000	      0.00000000
      7.55500000	    -17.68425719	      6.64934666	      7.72884909	      0.34113931	      1.12602163	     -0.25792097	      0.00000000	      0.50000000	      0.00000000	      0.25000000	     30.55958707	    -13.60596208	     -5.23854747	     49.39694362	      0.86213931	    -22.79255806	    -18.68279806	      0.00000000	      0.00000000	     79.73635462	      2.03491598	     -2.89146832	    104.26953617	      1.81984672	      3.24357716	     -4.56917928	      0.00000000	      0.00000000	    -55.99497938	     -2.19262225	     -9.68667907	     70.68067065	    -11.21922875	     49.93170853	     28.90133570	     48.06784509	      0.00000000	      0.00000000	     76.11400788	    -14.15944293	     61.97109834	     36.92496494	     48.92921484	      0.00000000	      0.00000000
      7.56000000	    -17.58072003	      6.42706892	      7.75476229	      0.34088715	      1.12676010	     -0.25764541	      0.00000000	      0.50000000	      0.00000000	      0.25000000	     31.12528670	    -13.30355038	     -4.78758097	     51.35175710	      0.89625724	    -23.04625967	    -19.18648875	      0.00000000	      0.00000000	     79.08830359	      2.22462992	     -2.71110270	    102.55823922	      1.78997895	      3.21122577	     -4.76199661	      0.00000000	      0.00000000	    -56.08631556	     -1.97799549	     -9.48192737	     70.87823492	    -11.12380745	     49.99421429	     28.68683378	     48.04517860	      0.00000000	      0.00000000	     76.16441466	    -14.06444747	     61.92257721	     36.74230362	     48.89139796	      0.00000000	      0.00000000
      7.56500000	    -17.55848403	      6.26607129	      7.72958816	      0.34060473	      1.12730852	     -0.25737272	      0.00000000	      0.50000000	      0.00000000	      0.25000000	     31.88782559	    -13.07747308	     -4.33785585	     53.40105144	      0.93202417	    -23.40137099	    -19.76111334	      0.00000000	      0.00000000	     78.40901220	      2.43476729	     -2.55361037	    100.76298256	      1.75864581	      3.15572469	     -4.99203617	      0.00000000	      0.00000000	    -56.03543783	     -1.85776982	     -9.31808086	     71.04424555	    -11.00859137	     50.06821492	     28.39893894	     48.01310820	      0.00000000	      0.00000000	     76.20406189	    -13.92397876	     61.87122821	     36.52919932	     48.84750910	      0.00000000	      0.00000000
      7.57000000	    -17.66350114	      6.10707798	      7.70161732	      0.34035222	      1.12765120	     -0.25699381	      0.00000000	      0.50000000	      0.00000000	      0.25000000	     32.83909098	    -12.85761269	     -3.88786317	     55.48526230	      0.96840051	    -23.89653201	    -20.38647325	      0.00000000	      0.00000000	     77.76332005	      2.66132216	     -2.34754980	     98.88311390	      1.72583591	      3.05822156	     -5.32548775	      0.00000000	      0.00000000	    -55.90455705	     -1.80319717	     -9.17402798	     71.09445799	    -10.75141031	     50.21831408	     27.90813733	     47.96431564	      0.00000000	      0.00000000	     76.11879221	    -13.67353779	     61.88322011	     36.22369818	     48.79603078	      0.00000000	      0.00000000
